<svg viewBox="0 0 25 24" fill="none" xmlns="http://www.w3.org/2000/svg">
<path d="M11.7333 23H3.3C2.02733 23 1 22.0173 1 20.8V3.2C1 1.98267 2.02733 1 3.3 1H21.7C22.9727 1 24 1.98267 24 3.2V20.8C24 22.0173 22.9727 23 21.7 23H16.3333V14.9333H18.6333L20.1667 11.2667H16.3333V8.33333C16.3333 7.52667 17.0233 7.6 17.8667 7.6H19.4V3.93333H16.3333C15.0607 3.93333 13.9107 4.432 13.0827 5.224C12.2547 6.016 11.7333 7.116 11.7333 8.33333V11.2667H8.66667V14.9333H11.7333V23Z" stroke="currentColor" stroke-width="1.75" stroke-miterlimit="10" stroke-linecap="round" stroke-linejoin="round"/>
</svg>
