<svg viewBox="0 0 32 32" fill="none" xmlns="http://www.w3.org/2000/svg">
<path d="M9.87971 26.6191C9.32219 26.6191 8.86424 26.4264 8.51722 26.046C8.05926 25.5432 7.8957 24.7972 7.84664 24.1693C7.18815 24.7681 6.31846 25.066 5.75313 25.2061C5.22975 25.3363 4.67508 25.2538 4.23064 24.98C3.81819 24.7261 3.5565 24.3613 3.45197 23.8956C3.28699 23.161 3.56646 22.3204 3.8317 21.7402C3.23508 21.8148 2.65055 21.753 2.08593 21.556C1.09677 21.2097 0.436149 20.3421 0.361482 19.2911C0.294638 18.351 0.710637 17.4892 1.46299 16.9693C0.298193 15.412 0.572682 13.9962 0.857838 13.2637C1.02566 12.8321 1.31935 12.4694 1.70548 12.2141C2.36184 11.7811 3.68806 11.2157 5.45588 12.0264C5.80575 11.1816 6.56095 10.5935 7.49393 10.4612C8.53713 10.3133 9.52486 10.777 10.071 11.6708C10.3825 12.1807 10.5659 12.7396 10.6185 13.3391C11.1298 12.9572 11.8907 12.5071 12.6459 12.5142C13.1231 12.5185 13.5348 12.6984 13.8697 13.0476C14.2303 13.4244 14.428 13.95 14.4109 14.4883C14.3924 15.0707 14.2836 15.9837 13.837 16.7532C14.4607 16.6685 15.2251 16.6721 15.8125 17.0141C16.2833 17.2886 16.5748 17.7288 16.6779 18.324C16.8209 19.1496 16.5449 19.9944 15.9391 20.5825C15.7257 20.7894 15.4889 20.9601 15.2322 21.0916C15.5025 21.5155 15.885 22.2586 15.9924 23.1937C16.0408 23.6118 15.9213 24.0228 15.6561 24.3507C15.3915 24.6785 15.0146 24.8819 14.5958 24.9224C13.6593 25.0141 12.8514 24.7958 12.3807 24.6209C12.306 24.8996 12.1894 25.167 12.0315 25.4188C11.5835 26.1348 10.8162 26.5821 9.97926 26.6156C9.94655 26.6184 9.91313 26.6191 9.87971 26.6191ZM8.22139 22.6995C8.25197 22.6995 8.28326 22.7037 8.31455 22.7116C8.48664 22.7578 8.59757 22.9249 8.5741 23.102C8.51153 23.5763 8.47455 24.9437 9.04415 25.5674C9.26673 25.8106 9.56326 25.9215 9.95153 25.9059C10.5538 25.8817 11.1064 25.5588 11.4292 25.0426C11.6148 24.746 11.7257 24.4232 11.7585 24.0833C11.7698 23.9645 11.8402 23.86 11.9455 23.8038C12.0507 23.7476 12.1766 23.7484 12.2818 23.8052C12.2911 23.8102 13.2916 24.3364 14.5275 24.2148C14.7551 24.1928 14.9599 24.0819 15.1042 23.9041C15.2486 23.7256 15.3133 23.5023 15.287 23.2748C15.1441 22.031 14.4216 21.1741 14.4145 21.1656C14.3369 21.0753 14.3099 20.9516 14.3426 20.8371C14.3753 20.7226 14.4628 20.6316 14.5766 20.596C14.9016 20.4922 15.1938 20.3165 15.4449 20.0726C15.8822 19.6481 16.0813 19.0401 15.9782 18.4463C15.9113 18.063 15.7407 17.7964 15.4562 17.63C14.7273 17.2047 13.3976 17.5283 12.9467 17.689C12.7789 17.7487 12.5926 17.6755 12.5108 17.5169C12.429 17.3583 12.4774 17.1642 12.6239 17.0625C13.5092 16.4467 13.6785 15.1724 13.7005 14.4676C13.7112 14.1185 13.586 13.7807 13.3563 13.5404C13.1565 13.3313 12.9218 13.2289 12.6395 13.226C12.636 13.226 12.6324 13.226 12.6289 13.226C11.8175 13.226 10.8262 14.0445 10.5119 14.3617C10.4059 14.4684 10.2445 14.4968 10.1087 14.4328C9.97286 14.3688 9.89179 14.2266 9.90602 14.0765C9.97855 13.3242 9.83064 12.6401 9.46513 12.042C9.06904 11.3942 8.35295 11.0579 7.5949 11.1652C6.8333 11.2733 6.23455 11.7981 6.0333 12.5348C6.02264 12.5747 6.01695 12.5996 6.01553 12.6045C5.99206 12.7148 5.91739 12.8079 5.81499 12.8548C5.71259 12.9018 5.59384 12.8975 5.49499 12.8428C3.8637 11.9382 2.6669 12.4324 2.09802 12.8079C1.8349 12.9814 1.63579 13.2282 1.5213 13.5219C1.27384 14.1569 1.04273 15.4312 2.26939 16.8356C2.34406 16.921 2.37322 17.0362 2.34904 17.1471C2.32486 17.258 2.24877 17.3498 2.14566 17.3953C2.1421 17.3967 2.11935 17.4074 2.08308 17.4266C1.40468 17.7786 1.01713 18.474 1.07188 19.2413C1.12593 20.0051 1.60522 20.6344 2.32202 20.8854C2.98335 21.1165 3.68379 21.118 4.40415 20.889C4.54708 20.8435 4.70353 20.8925 4.79455 21.0127C4.88557 21.1322 4.89197 21.2964 4.80948 21.4223C4.56486 21.7992 3.96895 22.9519 4.14673 23.7427C4.20859 24.0179 4.35864 24.2248 4.60468 24.3763C4.8877 24.5505 5.24397 24.6017 5.58317 24.5178C6.26797 24.3478 7.47828 23.9148 7.89357 22.9199C7.94975 22.7834 8.08059 22.6995 8.22139 22.6995Z" fill="#DCFEBC"/>
<path d="M18.1126 25.6939C18.0593 25.6939 18.0046 25.6818 17.9534 25.6562C17.0758 25.2161 16.1934 24.7418 15.3301 24.2468C14.2428 23.6225 13.1598 22.9512 12.1116 22.2507C11.2561 21.679 10.4028 21.0753 9.57576 20.4566C8.52118 19.6673 7.48865 18.8388 6.50589 17.9926C4.03051 15.8614 2.68722 14.3332 2.63105 14.2692C2.50162 14.1213 2.51656 13.8966 2.66447 13.7679C2.81238 13.6385 3.03709 13.6534 3.16651 13.8013C3.18002 13.817 4.53611 15.3586 6.97025 17.4543C7.9402 18.2898 8.96065 19.1083 10.0017 19.8877C10.8188 20.4993 11.6614 21.0959 12.5062 21.6605C13.5416 22.3517 14.6104 23.0152 15.6835 23.631C16.5354 24.1195 17.4058 24.5874 18.2719 25.0219C18.4476 25.1101 18.5187 25.3234 18.4305 25.4991C18.3679 25.6221 18.2428 25.6939 18.1126 25.6939Z" fill="#DCFEBC"/>
<path d="M9.58094 22.8246C9.41312 22.8246 9.26378 22.7059 9.23178 22.5352C9.19552 22.3425 9.32209 22.1562 9.51552 22.1199L11.944 21.6619L11.8679 19.2107C11.8615 19.0145 12.0158 18.8502 12.2121 18.8445C12.4083 18.8417 12.5726 18.9924 12.5783 19.1887L12.6643 21.9435C12.67 22.1185 12.547 22.2714 12.3749 22.3041L9.64778 22.8182C9.62503 22.8225 9.60298 22.8246 9.58094 22.8246Z" fill="#DCFEBC"/>
<path d="M5.94962 21.2659C5.78251 21.2659 5.63388 21.1479 5.60117 20.9772C5.56419 20.7845 5.69006 20.5982 5.88277 20.5605L9.42197 19.8792L9.29824 16.3372C9.29113 16.1409 9.44473 15.976 9.64099 15.9696C9.83868 15.9632 10.0015 16.116 10.0086 16.3123L10.143 20.158C10.1494 20.3329 10.0271 20.4865 9.85504 20.5192L6.01717 21.2581C5.99442 21.2645 5.97166 21.2659 5.94962 21.2659Z" fill="#DCFEBC"/>
<path d="M3.28675 18.7194C3.11893 18.7194 2.9696 18.5999 2.9376 18.4285C2.90204 18.2358 3.02933 18.0502 3.22204 18.014L6.37013 17.4294L6.24782 14.2714C6.24 14.0751 6.39289 13.9101 6.58915 13.9023C6.784 13.8924 6.9504 14.0474 6.95822 14.2436L7.09191 17.7089C7.09902 17.8852 6.97529 18.0403 6.80177 18.0723L3.35146 18.713C3.33013 18.7172 3.30809 18.7194 3.28675 18.7194Z" fill="#DCFEBC"/>
<path d="M23.2369 23.86C23.1814 23.86 23.1252 23.8571 23.0683 23.8507C22.6495 23.8059 22.274 23.5997 22.0123 23.2705C21.4271 22.533 21.1718 21.7366 21.063 21.2466C20.7885 21.3348 20.5005 21.3817 20.2033 21.3867C19.3613 21.4009 18.5663 20.9977 18.0842 20.3122C17.7364 19.8187 17.6312 19.301 17.7698 18.7741C17.9434 18.117 18.4817 17.5737 18.9823 17.1926C18.1226 16.9643 17.4001 16.3961 16.9748 15.9972C16.5816 15.6281 16.3498 15.1169 16.3384 14.5956C16.3277 14.1113 16.492 13.6932 16.8269 13.3526C17.3546 12.8157 18.2122 12.5938 18.8436 12.5021C18.4575 12.0413 18.1915 11.5165 18.0514 10.9355C17.8054 9.91721 18.1759 8.89108 19.0178 8.25748C19.7709 7.69144 20.721 7.57339 21.5658 7.92326C22.242 6.09997 23.5796 5.56166 24.3505 5.40379C24.8042 5.31064 25.2685 5.36041 25.6923 5.54672C26.412 5.86317 27.6066 6.67028 27.8847 8.59526C28.7842 8.43099 29.6881 8.74601 30.3053 9.45784C30.9958 10.2543 31.1423 11.3352 30.6872 12.2788C30.4276 12.8178 30.0578 13.2744 29.5828 13.6441C30.1809 13.866 30.9723 14.2635 31.3755 14.8993C31.6308 15.3025 31.7034 15.7462 31.5917 16.2169C31.4708 16.7247 31.1366 17.1748 30.6751 17.4536C30.1766 17.7544 29.3503 18.1583 28.4614 18.2002C28.871 18.6781 29.2827 19.3224 29.314 20.0015C29.3389 20.5462 29.127 21.0297 28.684 21.4393C28.0682 22.0082 27.2091 22.2344 26.3864 22.0445C26.0962 21.9777 25.8253 21.8717 25.575 21.7273C25.3659 22.1839 24.9485 22.9092 24.2218 23.5065C23.9416 23.7369 23.5967 23.86 23.2369 23.86ZM21.341 20.3919C21.4008 20.3919 21.4605 20.4068 21.5138 20.4367C21.6177 20.495 21.6859 20.6009 21.6952 20.7197C21.6959 20.7304 21.7976 21.8561 22.5691 22.8281C22.7114 23.0073 22.9154 23.1197 23.1437 23.1439C23.372 23.1681 23.5946 23.1012 23.7716 22.9561C24.7387 22.1618 25.0666 21.0895 25.0694 21.0781C25.1035 20.9636 25.1924 20.874 25.3062 20.8399C25.42 20.805 25.5437 20.8299 25.6362 20.9053C25.9 21.1222 26.2065 21.2722 26.5471 21.3505C27.1409 21.487 27.7595 21.3249 28.2026 20.916C28.4884 20.6521 28.62 20.3641 28.605 20.0349C28.5666 19.1915 27.5732 18.2507 27.1942 17.9592C27.0527 17.8504 27.0136 17.6541 27.1025 17.4998C27.1914 17.3455 27.3805 17.2808 27.5455 17.3483C28.5432 17.7579 29.7051 17.2082 30.3096 16.8449C30.609 16.6642 30.8244 16.3762 30.9012 16.0527C30.9681 15.7718 30.9275 15.5193 30.7768 15.2811C30.3437 14.5963 29.1071 14.2031 28.6676 14.1092C28.5204 14.0779 28.4095 13.9577 28.3889 13.8091C28.3682 13.6605 28.4443 13.5147 28.578 13.4457C29.2493 13.0987 29.7435 12.6024 30.0479 11.9709C30.3771 11.2868 30.2705 10.5025 29.7691 9.92432C29.265 9.34335 28.4991 9.12504 27.7709 9.35544C27.7311 9.36824 27.7076 9.37677 27.7034 9.37819C27.5981 9.41801 27.4794 9.40592 27.3848 9.34548C27.2902 9.28504 27.229 9.18264 27.2212 9.07028C27.0954 7.2093 26.0308 6.47188 25.4072 6.1981C25.1185 6.07152 24.8027 6.03739 24.4941 6.10139C23.8271 6.23792 22.631 6.73499 22.1169 8.52841C22.0856 8.63721 22.0045 8.72468 21.8986 8.76379C21.7926 8.8029 21.6738 8.78939 21.58 8.72753C21.5771 8.72539 21.5558 8.71188 21.5195 8.69126C20.8561 8.31295 20.0618 8.36486 19.4466 8.82708C18.8351 9.28717 18.5656 10.031 18.7441 10.7691C18.9083 11.4504 19.2881 12.0392 19.8712 12.5199C19.9871 12.6152 20.0305 12.7737 19.9793 12.9153C19.9281 13.0561 19.7944 13.1499 19.645 13.1499C19.6429 13.1499 19.6415 13.1499 19.6394 13.1499C19.1857 13.1499 17.9007 13.2758 17.3354 13.8525C17.1384 14.0537 17.0452 14.292 17.0516 14.5807C17.0587 14.9128 17.2088 15.2399 17.4641 15.4795C17.9782 15.9624 18.9986 16.7432 20.0603 16.5533C20.236 16.522 20.4074 16.6251 20.4621 16.7951C20.5162 16.965 20.4365 17.1485 20.2751 17.2246C19.8427 17.4294 18.6744 18.1405 18.4596 18.9576C18.3757 19.2761 18.444 19.5855 18.668 19.9033C19.015 20.3961 19.586 20.6856 20.1954 20.6763C20.5453 20.6713 20.8767 20.5889 21.1796 20.4324C21.2287 20.4054 21.2849 20.3919 21.341 20.3919Z" fill="#DCFEBC"/>
<path d="M22.0308 26.6411C21.9938 26.6411 21.9561 26.6354 21.9184 26.6226C21.7321 26.5607 21.6311 26.3595 21.693 26.1732C21.9981 25.2537 22.2832 24.3072 22.5399 23.3593C22.8628 22.1646 23.1501 20.9401 23.3933 19.7191C23.5917 18.7221 23.7659 17.7052 23.911 16.6948C24.0966 15.4076 24.2388 14.107 24.3341 12.8299C24.5737 9.62703 24.4422 7.57761 24.4407 7.55698C24.4279 7.36072 24.5758 7.19147 24.7721 7.17867C24.9691 7.16445 25.1376 7.31378 25.1504 7.50934C25.1561 7.59396 25.287 9.62489 25.0438 12.8825C24.947 14.176 24.8034 15.4923 24.6157 16.7957C24.4685 17.8183 24.2921 18.8487 24.0916 19.8578C23.8455 21.0944 23.5547 22.3353 23.2269 23.5449C22.9666 24.5056 22.6779 25.4649 22.3686 26.3972C22.3188 26.5465 22.1801 26.6411 22.0308 26.6411Z" fill="#DCFEBC"/>
<path d="M23.7422 20.1444C23.6469 20.1444 23.5524 20.106 23.4827 20.0321L21.5954 18.0232C21.461 17.8802 21.4681 17.6548 21.611 17.5204C21.754 17.386 21.9794 17.3931 22.1138 17.5361L23.7927 19.3231L25.8336 17.93C25.9957 17.8191 26.2169 17.861 26.3278 18.0232C26.4388 18.1853 26.3968 18.4065 26.2347 18.5174L23.9428 20.0818C23.8816 20.1245 23.8112 20.1444 23.7422 20.1444Z" fill="#DCFEBC"/>
<path d="M24.2635 17.1015C24.1675 17.1015 24.0729 17.0631 24.0032 16.9885L21.3785 14.1739C21.2448 14.0302 21.2527 13.8055 21.3963 13.6711C21.54 13.5374 21.7647 13.5453 21.8991 13.6889L24.3161 16.2809L27.3007 14.2599C27.4635 14.1497 27.6847 14.1924 27.7942 14.3552C27.9044 14.5181 27.8617 14.7392 27.6989 14.8487L24.4626 17.0404C24.4022 17.0816 24.3325 17.1015 24.2635 17.1015Z" fill="#DCFEBC"/>
<path d="M24.6891 13.2132C24.5931 13.2132 24.4978 13.1741 24.4281 13.0994L22.0722 10.5543C21.9385 10.41 21.9478 10.1853 22.0914 10.0516C22.2358 9.91789 22.4605 9.92714 22.5942 10.0708L24.741 12.3904L27.3807 10.5778C27.5428 10.4669 27.7639 10.5081 27.8749 10.6695C27.9858 10.8317 27.9453 11.0528 27.7831 11.1638L24.8903 13.1506C24.8292 13.1926 24.7588 13.2132 24.6891 13.2132Z" fill="#DCFEBC"/>
</svg>
