<svg width="38" height="37" viewBox="0 0 38 37" fill="none" xmlns="http://www.w3.org/2000/svg">
<path d="M19 17.3248C24.2467 17.3248 28.5 13.4465 28.5 8.66242C28.5 3.8783 24.2467 0 19 0C13.7533 0 9.5 3.8783 9.5 8.66242C9.5 13.4465 13.7533 17.3248 19 17.3248Z" fill="currentColor"/>
<path d="M38 36.8146V28.1522C38 26.8528 37.2875 25.5534 36.1 24.6872C33.4875 22.7382 30.1625 21.4388 26.8375 20.5725C24.4625 19.9229 21.85 19.4897 19 19.4897C16.3875 19.4897 13.775 19.9229 11.1625 20.5725C7.8375 21.4388 4.5125 22.9547 1.9 24.6872C0.7125 25.5534 0 26.8528 0 28.1522V36.8146H38Z" fill="currentColor"/>
</svg>
