<svg width="84" height="38" viewBox="0 0 84 38" fill="none" xmlns="http://www.w3.org/2000/svg">
<path d="M16.96 17.8824C21.6431 17.8824 25.4395 13.8793 25.4395 8.94118C25.4395 4.0031 21.6431 0 16.96 0C12.2769 0 8.48047 4.0031 8.48047 8.94118C8.48047 13.8793 12.2769 17.8824 16.96 17.8824Z" fill="currentColor"/>
<path d="M33.918 38V29.0589C33.918 27.7177 33.282 26.3765 32.2221 25.4824C29.8902 23.4706 26.9224 22.1294 23.9546 21.2353C21.8347 20.5647 19.5028 20.1177 16.959 20.1177C14.6271 20.1177 12.2953 20.5647 9.96341 21.2353C6.99558 22.1294 4.02776 23.6941 1.6959 25.4824C0.635963 26.3765 0 27.7177 0 29.0589V38H33.918Z" fill="currentColor"/>
<path d="M41.6025 17.8824C46.2856 17.8824 50.082 13.8793 50.082 8.94118C50.082 4.0031 46.2856 0 41.6025 0C36.9194 0 33.123 4.0031 33.123 8.94118C33.123 13.8793 36.9194 17.8824 41.6025 17.8824Z" fill="currentColor"/>
<path d="M58.5606 38V29.0589C58.5606 27.7177 57.9246 26.3765 56.8647 25.4824C54.5328 23.4706 51.565 22.1294 48.5972 21.2353C46.4773 20.5647 44.1454 20.1177 41.6016 20.1177C39.2697 20.1177 36.9378 20.5647 34.606 21.2353C31.6382 22.1294 28.6703 23.6941 26.3385 25.4824C25.2785 26.3765 24.6426 27.7177 24.6426 29.0589V38H58.5606Z" fill="currentColor"/>
<path d="M67.042 17.8824C71.7251 17.8824 75.5215 13.8793 75.5215 8.94118C75.5215 4.0031 71.7251 0 67.042 0C62.3589 0 58.5625 4.0031 58.5625 8.94118C58.5625 13.8793 62.3589 17.8824 67.042 17.8824Z" fill="currentColor"/>
<path d="M84 38V29.0589C84 27.7177 83.3641 26.3765 82.3041 25.4824C79.9723 23.4706 77.0044 22.1294 74.0366 21.2353C71.9167 20.5647 69.5849 20.1177 67.041 20.1177C64.7092 20.1177 62.3773 20.5647 60.0454 21.2353C57.0776 22.1294 54.1098 23.6941 51.7779 25.4824C50.718 26.3765 50.082 27.7177 50.082 29.0589V38H84Z" fill="currentColor"/>
</svg>
