<svg width="56" height="37" viewBox="0 0 56 37" fill="none" xmlns="http://www.w3.org/2000/svg">
<path d="M16.906 17.4118C21.5743 17.4118 25.3588 13.514 25.3588 8.70588C25.3588 3.89776 21.5743 0 16.906 0C12.2376 0 8.45312 3.89776 8.45312 8.70588C8.45312 13.514 12.2376 17.4118 16.906 17.4118Z" fill="currentColor"/>
<path d="M33.8113 37.0001V28.2943C33.8113 26.9884 33.1774 25.6825 32.1208 24.8119C29.7962 22.8531 26.8377 21.5472 23.8792 20.6766C21.766 20.0237 19.4415 19.5884 16.9057 19.5884C14.5811 19.5884 12.2566 20.0237 9.93208 20.6766C6.97358 21.5472 4.01509 23.0707 1.69057 24.8119C0.633963 25.6825 0 26.9884 0 28.2943V37.0001H33.8113Z" fill="currentColor"/>
<path d="M39.0954 17.4118C43.7638 17.4118 47.5482 13.514 47.5482 8.70588C47.5482 3.89776 43.7638 0 39.0954 0C34.427 0 30.6426 3.89776 30.6426 8.70588C30.6426 13.514 34.427 17.4118 39.0954 17.4118Z" fill="currentColor"/>
<path d="M56.0008 37.0001V28.2943C56.0008 26.9884 55.3668 25.6825 54.3102 24.8119C51.9857 22.8531 49.0272 21.5472 46.0687 20.6766C43.9555 20.0237 41.631 19.5884 39.0951 19.5884C36.7706 19.5884 34.4461 20.0237 32.1215 20.6766C29.163 21.5472 26.2045 23.0707 23.88 24.8119C22.8234 25.6825 22.1895 26.9884 22.1895 28.2943V37.0001H56.0008Z" fill="currentColor"/>
</svg>
